<svg xmlns="http://www.w3.org/2000/svg" viewBox="0 0 1054.26 604.74">
  <defs>
    <style>
      .cls-1 {
        fill: #080c04;
      }
    </style>
  </defs>
  <title>Ativo 1</title>
  <g id="Camada_2" data-name="Camada 2">
    <g id="Camada_1-2" data-name="Camada 1">
      <g>
        <path class="cls-1" d="M212.86,604.74c-3.07-.43-6.12-1-9.2-1.24-10.84-.68-21.68-1.58-32.55-.42a33.11,33.11,0,0,1-5.72.1c-2.68-.17-4.09-1.59-4.45-4.26a14.88,14.88,0,0,1,0-2.5c.34-17.54,1-35.09,1-52.63s-.74-34.85-1-52.28q-.33-20.42-.26-40.83c0-7.51.09-15,.7-22.52,1.05-12.69,0-25.24-1.45-37.81a45.87,45.87,0,0,1,.09-7.5c.23-4.52.79-9,.8-13.55q.08-35.28-.11-70.57c0-6.79-.88-13.59-.68-20.36.55-18.73,1.45-37.44,2.18-56.16.08-2,0-4.05-.09-6.07-.28-7.39-.71-14.77-.86-22.16-.23-11.1-.33-22.2-.37-33.3A20.55,20.55,0,0,0,155.23,146a11.25,11.25,0,0,1-3.34-8.06,4.25,4.25,0,0,0-.31-2.09c-2.87-4.94-5.21-10.36-8.88-14.62-4.64-5.37-11.35-6.74-18-4.38-4.52,1.59-8.07,1.11-11.57-1.85-1.28-1.08-2.62-2.08-4-3.06-1.88-1.38-2.65-1.35-4.45,0-.47.37-.88.81-1.35,1.17-5.23,4.08-10.81,3.9-15.39-.91a7.82,7.82,0,0,0-6.39-2.43c-1.91,0-3.82.12-5.73.19-3.36.13-6.2-1.49-9.06-2.91-1.61-.8-2.05-2.47-2.26-4.23-.37-3.19-1.23-3.67-4.12-2.12a5.86,5.86,0,0,1-5.8.07c-.32-.15-.64-.31-.95-.48C45.87,96,38,96.38,29.93,100c-3.27-1.3-.49-4.82-2.44-7.07-1.16.11-2.54.31-3.93.36-2.45.09-3.41-.9-2.81-3.25a8.73,8.73,0,0,1,2.07-3.64c1.77-1.84,2.74-3.67,2.24-6.37-.53-2.89.1-3.53,2.91-4.94,1.21-.61,2.74-.82,3.55-2.75-1.94.34-3.54.6-5.14.9-2.1.4-4.21.74-6.28,1.28A11.68,11.68,0,0,0,16.55,76,13.55,13.55,0,0,1,7,78c-1.55-.2-3-1.68-4.37-2.76A23.92,23.92,0,0,1,0,72.37V70.22a23.38,23.38,0,0,0,1.66-2.61C2.8,65.12,3.74,62.53,5,60.08c1.73-3.5,2.9-3.81,6.45-2.06,2.14,1,3,.91,4.71-.87.74-.77,1.31-1.71,2.09-2.43,1.85-1.71,3.49-1.38,4.52.87a14.22,14.22,0,0,0,1,2.66c.74,1,1.74,2.29,2.74,2.4,1.71.19,2.56-1.35,3.07-2.94.72-2.23-.07-4.21-.78-6.24-1.42-4.1-1.1-5.41,2.57-7.83,5.07-3.35,10.28-6.48,15.41-9.74a6,6,0,0,1,5.79-.46c1.21.49,2.42,1,3.62,1.52a15.82,15.82,0,0,0,7.24,1.62A10.22,10.22,0,0,1,70.32,39c2.27,1.75,4.74.78,5-2.08a8.21,8.21,0,0,0-1.09-4c-1.62-3.18-1.62-4.42.72-7.09a63,63,0,0,1,4.47-4.63c2.16-2,3.59-2.11,6-.4,1.26.89,2.38,2,3.56,3a2,2,0,0,0,3.1-.28c.46-.55.88-1.13,1.31-1.7a7.66,7.66,0,0,1,7.13-3.23,17.22,17.22,0,0,0,4.57-.45c4-.83,7.9-1.75,11.83-2.68s6.46.69,7.1,4.73a21.58,21.58,0,0,0,.64,3.5c.55,1.64,1.54,1.92,3,1,.7-.44,1.28-1.08,2-1.55A5.16,5.16,0,0,1,134,22c2.44.54,3.55-.81,2.82-3.2a8.27,8.27,0,0,0-1.17-2.19c-2.16-3.14-4.32-6.25-7.52-8.52-2.57-1.81-2.83-3.69-1.42-6.53.26-.53.58-1,.88-1.53h2.15c3.58,3,7.17,6,10.72,9a7.88,7.88,0,0,1,1.89,2.11c1,1.93,2.77,2.84,4.65,3.7,3.08,1.41,5.85,1.82,8.92-.47,1.7-1.27,4.19-1.65,6.39-2,4.17-.69,8.11-1.63,11.4-4.59,2.8-2.52,6.15-2.48,9.36-.8a36,36,0,0,1,5.63,3.78c2.25,1.79,4.37,2.12,6.82.39A16.59,16.59,0,0,1,208,7.93a7.25,7.25,0,0,0,5.4-1.46,12.23,12.23,0,0,1,11.25-1.56c2.94.9,5.78.55,8.79.29,6.64-.57,13.33-.57,20-.58a5.46,5.46,0,0,1,4.78,2.76q2.42,4.19,4.67,8.45a4.9,4.9,0,0,1,.52,2.06,3.22,3.22,0,0,1-4.15,3.48c-1.08-.22-2.17-.35-3.29-.52-.49,2,.14,3.09,1.64,3.41,3.13.68,6.29,1.34,9.47,1.74a6.93,6.93,0,0,0,3.3-1c1-.43,1.8-1.17,2.74-1.68,1.23-.66,2.7-1,3.61.21a8.6,8.6,0,0,1,1.19,3.53c.1.51-.33,1.12-.53,1.68-1.29,3.83-.54,5.54,3.81,7.9,1-1.08,2.16-2.25,3.27-3.43,1.85-2,2.35-2,4.51-.44,3.15,2.29,4,2.35,7.35.27a32.62,32.62,0,0,0,2.81-2.19,12,12,0,0,1,9.37-2.59c1.66.2,3.32.34,5,.46a9.25,9.25,0,0,0,7.16-2.63c3-2.73,4.15-2.61,6.57.66,1.11,1.51,2.28,2.66,4.31,2.79A2.65,2.65,0,0,1,333.37,31a32.3,32.3,0,0,1,2.1,5.68c.84,3.44-.19,5.44-3.27,7.06s-3.22,1.7-2.74,5.1c.36,2.65-.61,3.87-3.63,4-3.21.16-6.44,0-9.67.07-1.55,0-3.14,0-4.08,1.76.53,1.65,1.85,2.06,3.34,1.92a12.2,12.2,0,0,1,7.44,2.06c3.66,2.16,7.72,2.26,11.81,2.06a54.69,54.69,0,0,1,5.71-.27c2.9.16,3.95,1.24,4.54,4.12a9.68,9.68,0,0,1,.3,2.12c0,2.1.69,3.72,2.86,4.5,0,1.3-.08,2.49,0,3.67.21,2.65-.11,4.91-2.88,6.29A6.41,6.41,0,0,0,343,83.82c-3.23,5.91-8.93,8.39-14.78,10.58a4.89,4.89,0,0,1-3.42-.46,46.07,46.07,0,0,1-6.11-3.65c-2.81-2-5.65-2.86-9.07-1.68a9,9,0,0,1-6.95-.78c-2.83-1.37-5.13-.84-7.53,1.16-6.43,5.34-11.95,11.23-14.78,19.36-1.69,4.85-5.33,8.09-10.13,10-2.25.9-4.29.69-5.9-1.09a62.78,62.78,0,0,1-6.16-7.4c-4.41-6.7-8.13-7.47-14.27-2.2-6.53,5.59-12.91,11.36-19.26,17.16A35,35,0,0,1,213,132.28a17.23,17.23,0,0,0-2,.88c-2.34,1.26-3,2.16-2.33,4.57,1.91,7.26,1.28,14.72,2,22.07.55,6.06.64,12.16.93,18.24a2.88,2.88,0,0,0,.08,1.07c2.67,5.34,1.48,11.27,2.62,16.85,2.52,12.35,1.9,24.95,2.86,37.43a75.11,75.11,0,0,0,1.22,9.52,62.12,62.12,0,0,1,1,12.79c-.22,29.13-.18,58.26,1,87.38.44,10.73.15,21.49.29,32.23a43.09,43.09,0,0,0,.75,5.25,66.37,66.37,0,0,1,1,8.14c.11,8.23.05,16.47-.09,24.71,0,2.61-.55,5.21-.79,7.81-.34,3.68-.89,7.35-.9,11q-.13,35.64,0,71.29a41.57,41.57,0,0,0,.78,5.61,55.3,55.3,0,0,1,1,7.42c.09,9.31,0,18.62-.07,27.94,0,1.88-.51,3.77-.72,5.66-.36,3.31-1,6.62-1,9.93-.09,11.82-.1,23.65.12,35.46.09,4.25-1,7.44-5.06,9.18ZM255.07,62.59c-.78,1.34-1.45,2.38-2,3.48-.81,1.58-1.45,3.27-2.36,4.79-.8,1.34-1.86,2.6-3.69,2.36-1.3-.17-2.6-2.36-2.59-4.32a8.47,8.47,0,0,1,.44-2.44c.43-1.36,1-2.68,1.49-4,1.07-2.89.89-3.66-1.82-5.27a12.7,12.7,0,0,1-5.16-4.75,3.92,3.92,0,0,0-2.43-1.93c-3.67-.51-7.39-.85-10.45,2-2.09,2-2.2,3-.13,5,1.69,1.67,3.54,3.19,5.32,4.78,1.62,1.44,2.89,3.35,2,5.36a107.07,107.07,0,0,1-6.11,11.24c-.94,1.54-2.63,1.46-4.13.51a10.86,10.86,0,0,1-1.71-1.3c-2.14-2.1-4.31-2.47-7-.79-2.56,1.6-3.54,1.24-5.52-1s-2.55-2.5-5.17-1.19a5.4,5.4,0,0,1-5.09.11c-2.23-1-3.19-.53-3.88,1.85-.57,1.94-1.1,3.9-1.48,5.89-1.12,5.86,1.21,10.29,6.62,12.68,1.85.82,3.8,1.42,5.61,2.31a6.75,6.75,0,0,0,6.14-.16c7.82-3.5,15.71-6.85,23.57-10.26,3.62-1.57,7.25-3,11.3-3.06a5.82,5.82,0,0,0,2.36-.64c5.78-2.83,8.45-8,9.49-13.9C259.12,67.28,257.74,64.77,255.07,62.59ZM133.94,96.44c-.77-1.66-1.17-2.6-1.63-3.52-3.8-7.55-7.57-15.11-11.42-22.63a28,28,0,0,0-3.07-4.8A7.23,7.23,0,0,0,112,62.36c-4.64.12-9.39,0-13.88.93-5.41,1.17-6.6,1-3,7.14.18.31.38.6.58.9,2.65,3.85,3.63,4,7.28,1.09,2.07-1.68,4.16-2.22,6.57-.93a55.27,55.27,0,0,1,5.6,3.11c2.86,2,3.16,4.13,1.14,7-.88,1.26-1.94,2.41-2.88,3.64a25.66,25.66,0,0,0-2.09,2.9c-1.69,2.92-1,4.16,2.28,4.37a22.6,22.6,0,0,0,2.85,0,20.84,20.84,0,0,1,10.75,2C129.1,95.45,131.26,95.71,133.94,96.44Zm-7.74-37c0,.76-.12,1.16,0,1.45a126.55,126.55,0,0,0,13.18,23.7,6.58,6.58,0,0,0,.67.83c1.35,1.32,2.43,1.45,3.7.12,5.53-5.79,6-12.93-.21-17.7-2.83-2.19-5.67-4.38-8.69-6.28A13.62,13.62,0,0,0,126.2,59.44ZM168,99c3.49,0,6.79-.77,9.27-3.61a10.56,10.56,0,0,0,2.33-9,16.74,16.74,0,0,1,1.21-10.1c2-4.14.67-6.07-3.87-6a6.25,6.25,0,0,0-2.13.14c-.6.21-1.37.74-1.49,1.26s.37,1.29.78,1.79a5.51,5.51,0,0,0,1.5.93c3.7,2.19,3.8,3.63.34,6.27-2.74,2.09-5.56,4.09-8.28,6.22a55.73,55.73,0,0,0-4.54,4,4.4,4.4,0,0,0-1.16,5.21,4.49,4.49,0,0,0,4.18,2.84C166.71,98.93,167.31,98.94,168,99ZM282.59,83.32l-.74-.47c-1.18,1.09-2.4,2.15-3.55,3.28-3.26,3.19-4.31,3.32-8,.93-.4-.25-.8-.51-1.19-.78-4.4-3-4.66-3.82-2.86-8.85,0-.13-.15-.35-.38-.85a47.67,47.67,0,0,0-3.57,3.52c-1.89,2.28-2,4-.3,6.47,2.16,3.13,4.39,6.22,6.8,9.15,2,2.38,3.6,2.38,5.61,0,2.55-3,4.92-6.11,7.22-9.28A10.39,10.39,0,0,0,282.59,83.32ZM49.5,67.35a3.83,3.83,0,0,0,.76.58,2.72,2.72,0,0,0,1,.21c6.72-.32,12.66-3,18.34-6.29,1.15-.68,1-1.88-.09-2.6-1.46-1-3.54-.88-4.41.62-1.93,3.36-4.61,3.54-8,2.69S50.87,63.67,49.5,67.35ZM159.35,66.2A15.9,15.9,0,0,0,162.28,58c.14-2.33-1.2-3.48-3.37-2.71-2.7,1-5.25,2.38-7.85,3.6Zm-38.76,34.22c-.47,2,.53,2.63,1.68,3.12,4.6,1.95,9.33,1.63,14,.53,2.16-.5,2.46-2,1.07-3.76a8.44,8.44,0,0,0-1.53-1.2c-2.57,1.07-4.92,2.68-7.39,2.89S123.3,101,120.59,100.42Zm132.5-65.91a40.58,40.58,0,0,1-4.41-.57c-1.36-.35-2.62-1.12-4-1.43-.68-.16-1.95.12-2.14.56a2.79,2.79,0,0,0,.21,2.51,23.19,23.19,0,0,0,4.17,2.72C250.46,40.34,252.57,39.15,253.09,34.51ZM181.37,62.93c-1.18-2.78-3.35-4.06-5.39-5.37-2.6-1.67-3.52-1.21-4.91,2.36C174.47,60.71,177.12,63.77,181.37,62.93Zm109,20.45c2.09-3.16,1.29-5.79-1.92-6.78a2.17,2.17,0,0,0-1.85.36,2,2,0,0,0-.33,1.85C287.32,80.46,288.13,82.4,290.37,83.38ZM135.21,58.49c1.82-1.82,1.92-2.64,0-4a35.06,35.06,0,0,0-5-2.84c-.48-.24-1.22.06-2.2.15Zm-92.56,9.1c-3.62-.21-4.81.44-6.36,3.26C39,71,40.49,69,42.65,67.59Zm120.74,7.34c1.11,1.85,2,.71,2.78,0,1-.87,2-1.79.05-3ZM80.8,59.53c1,1.58,1.54,2.88,3.69,2.87C83.81,60.63,83,59.61,80.8,59.53Z"/>
        <path class="cls-1" d="M1054.26,520.19c-.43.2-.85.58-1.28.58-7.25,0-14.51,0-21.71,0-.75-2.75-.92-35.85-.24-40.56h9.12v32.16c3.7,0,7,0,10.32,0a27.88,27.88,0,0,1,3.79.6Z"/>
        <path class="cls-1" d="M446.8,247.83c22-.21,42.43,16.06,46.28,39.93,2.38,14.72-.59,28.26-9.93,40.07-7.76,9.8-18,15.3-30.43,16.9A46.83,46.83,0,0,1,420,337.4c-10.69-7-17.1-17.16-19.64-29.61-3.15-15.42-.47-29.72,9.48-42.17C419.23,253.83,431.7,248,446.8,247.83Zm23.73,48.44a34.26,34.26,0,0,0-3.22-14.66c-2.8-5.7-7-10-13.16-11.85-11.38-3.46-23.73.47-29.11,13.36a35.62,35.62,0,0,0-2,20c1.87,11.08,8.32,20.53,22.3,21.09,10.46.42,18.16-4.19,22.34-13.44C469.59,306.47,470.35,301.91,470.53,296.27Z"/>
        <path class="cls-1" d="M550.19,293.39c1.33.37,2,.54,2.7.75,11.08,3.35,16.28,10.08,16.76,21.69.55,13.36-7.44,23.66-20.76,26.54a44.69,44.69,0,0,1-8.87,1c-11.46.11-22.93.05-34.39,0-.7,0-1.4-.11-2.31-.19V249.6c1.24-.06,2.29-.16,3.33-.16,8.72,0,17.44-.05,26.16,0a41.48,41.48,0,0,1,15.06,2.62c8.3,3.28,12.57,9.5,13.31,18.26.41,4.94,0,9.78-2.36,14.28A22.79,22.79,0,0,1,550.19,293.39ZM524.9,304.86V326.7c4.86,0,9.48.43,14-.71,5.06-1.27,7.77-4.41,7.91-9.21.17-5.73-2.13-9.31-7.25-10.89C534.88,304.43,530,304.53,524.9,304.86Zm-.07-19c3.81.39,7.21.24,10.45-1.25,3.56-1.63,5-4.58,5.12-8.3s-1-6.59-4.39-8.29-7.21-1.93-11.18-1.48Z"/>
        <path class="cls-1" d="M288.51,293.49c2,.69,4.1,1.26,6.06,2.1,7.07,3,11,8.49,12.19,16a30.14,30.14,0,0,1-.37,12.44c-2.68,10.39-9.95,15.93-19.95,18.31a40.49,40.49,0,0,1-8.86,1c-11.46.11-22.93.05-34.4,0-.69,0-1.38-.11-2.27-.19V249.79a15.22,15.22,0,0,1,2.33-.34c9.44,0,18.88-.2,28.31.1a50.82,50.82,0,0,1,12.28,2c8.33,2.39,13.37,8.08,14.71,16.69,1,6.66.52,13.2-3.7,18.8C293.09,289.39,290.73,291.27,288.51,293.49Zm-26.07,33.15c5.32.12,10.4.64,15.35-1.09,4.51-1.58,6.61-4.41,6.7-9,.1-5-1.94-8.67-6.17-10.26-5.1-1.93-10.41-1.75-15.88-1.4Zm0-40.81c3.71.39,7.08.25,10.32-1.22,4-1.82,5.3-5.22,5.22-9.31s-2.08-6.67-5.95-8a21.68,21.68,0,0,0-9.59-.82Z"/>
        <path class="cls-1" d="M369.79,324.71H334.37c-2.3,6.13-4.58,12.24-6.91,18.48H304.3c12.59-31.41,25.19-62.48,37.77-93.63h20l37.63,93.17c-2.73.78-18.58.95-23.1.27Zm-7.37-19-10-26.25c-2.05,2.9-9.88,23.63-10,26.25Z"/>
        <path class="cls-1" d="M604.74,249.51h19.71l37.64,93.19c-2.69.81-18.12,1-23.06.32-2.24-6-4.52-12.08-6.84-18.27H596.75c-2.27,6.08-4.56,12.18-6.89,18.42H567.3C567.54,340.57,601.4,255.87,604.74,249.51Zm9.74,29.22c-3.63,9.43-7.08,18-10.21,26.89h20.51Z"/>
        <path class="cls-1" d="M494.76,520.67h-9.38c-.62-7.39-1.24-14.71-1.92-22.85-2.23,3.95-3,7.72-4.37,11.25-1.38,3.68-2.62,7.41-4,11.22-.81.1-1.49.25-2.18.27-3.61.09-3.61.08-4.8-3.31q-2.89-8.26-5.78-16.54a5.75,5.75,0,0,0-1.46-2.4c-.63,7.44-1.26,14.87-1.9,22.39H440.26c-.78-2-1.6-4-2.29-6a2.42,2.42,0,0,0-2.54-2c-4.41,0-8.81,0-13.37,0l-3.15,7.93H408.8l16.28-40.43h9l15,37.08.76-.08c1.12-12.23,2.23-24.47,3.37-36.93h10.17q4.22,10.86,8.46,21.81l.68.09c2.82-7.27,5.65-14.54,8.54-22h10.08C492.46,493.52,493.64,506.87,494.76,520.67Zm-60.85-16.46c-1.47-3.82-2.76-7.14-4.35-11.27l-4.31,11.27Z"/>
        <path class="cls-1" d="M529.2,420.81c6.17.09,12.12-.67,18,.45,5.35,1,8.67,4.21,9.55,8.89,1.1,5.82-.92,10.72-5.62,13.63-.59.36-1.2.7-2.17,1.28l11.86,14.25,15.64-38.56c2.39,0,4.75.05,7.11,0,1.57-.05,2,1,2.44,2.16,1.83,4.54,3.63,9.08,5.45,13.62q4.35,10.77,8.72,21.55c.39,1,.72,2,1.19,3.28h-10c-1-2.44-2-5-3-7.62H573.21c-1,2.51-2,5-3.1,7.87-6,0-12.12.08-18.18-.09a4.58,4.58,0,0,1-2.78-1.85c-2.86-3.51-5.58-7.15-8.36-10.74-.5-.64-1-1.26-2.12-2.62-.44,5.47,0,10.16-.32,15H529.2Zm9.43,18c3.2-.18,6.31.5,7.85-2.75a5,5,0,0,0-.38-5.41c-1.93-2.4-4.59-2.41-7.47-1.88Zm42.17-5c-1.55,4.06-2.85,7.43-4.21,11H585Z"/>
        <path class="cls-1" d="M544.39,397.59l4.39-7.49c1.37.83,2.54,1.57,3.74,2.27a12.31,12.31,0,0,0,8.87,1.87,3.62,3.62,0,0,0,3.22-2.89,3.29,3.29,0,0,0-1.85-3.58c-1.72-1-3.58-1.87-5.35-2.85a35.16,35.16,0,0,1-5.22-3.06c-6.19-5-5.91-13.27.48-18,3.93-2.94,8.39-3.32,12.94-2.31a74.31,74.31,0,0,1,8.33,2.86c.12-.59.26-1.32.46-2.32h28.28v8h-9.23v32.32h-9.51V370.21h-9.37c-.23-1.64-.4-2.89-.68-4.87l-3.79,6.8a39.81,39.81,0,0,0-5.16-1.93,15.37,15.37,0,0,0-4.92-.34,2.9,2.9,0,0,0-2.82,2.77,4.2,4.2,0,0,0,1.62,2.88,54.25,54.25,0,0,0,5.34,2.83,56.61,56.61,0,0,1,6.77,3.93c6.69,5.05,4.54,15.35-1.66,18.81C561.18,405.6,548.85,402.7,544.39,397.59Z"/>
        <path class="cls-1" d="M266.91,420.76c3.17,0,6,0,8.83,0,1.6,0,1.77,1.43,2.18,2.48,2,5.1,3.93,10.22,5.89,15.34.55,1.44,1.14,2.86,2,5a122.65,122.65,0,0,0,4.67-11.5c1.44-3.65,2.85-7.31,4.35-11.14h10.07c1.2,13.35,2.4,26.71,3.63,40.37h-9.44q-.93-10.86-1.85-21.81l-.68-.17-7.77,21.94H283q-3.91-11.06-7.79-22.05l-.64.15c-.6,7.19-1.2,14.38-1.81,21.77-3.1.77-6.1.47-9.48.22C264.5,447.9,265.67,434.65,266.91,420.76Z"/>
        <path class="cls-1" d="M374.8,520.74h-9L350.47,497l-.68.24v23.33h-9.24v-40.5c2.77,0,5.6-.16,8.38.1.8.07,1.64,1.24,2.19,2.08,4.11,6.29,8.14,12.62,12.21,18.94.51.78,1.08,1.53,1.9,2.69,1-2.88.39-5.46.5-8s0-5,0-7.51v-8.1h9C375.48,482.91,375.57,517,374.8,520.74Z"/>
        <path class="cls-1" d="M389.59,461.56l-15.33-23.75-.71.24v23.29h-9.24V420.76a73.09,73.09,0,0,1,8.12.1c.91.1,1.88,1.3,2.48,2.22,4.07,6.18,8,12.42,12,18.64a7.41,7.41,0,0,0,2.7,2.67V420.92h8.92c.72,2.79,1,32.34.37,40.26C395.87,462.1,392.71,461.38,389.59,461.56Z"/>
        <path class="cls-1" d="M536.53,480.32l15.17,23.49.71-.25v-23.3h9.27v40.56a75.41,75.41,0,0,1-8.11-.1c-.92-.1-1.92-1.26-2.52-2.17-4.07-6.18-8-12.43-12-18.64a8,8,0,0,0-2.57-2.67v23.32h-9.35V480.32Z"/>
        <path class="cls-1" d="M945.65,497.32v23.3h-8.84c-.72-2.68-.84-36.66-.08-40.59,2.52,0,5.12.05,7.72,0,1.53,0,2,1.11,2.59,2.09L959.24,501c.62.95,1.32,1.85,2.47,3.47V480.32h9.21v40.15c-2.69.75-5.55.4-8.33.22-.78-.05-1.62-1.25-2.17-2.1-4-6.18-8-12.41-12-18.63-.63-1-1.31-1.94-2-2.9Z"/>
        <path class="cls-1" d="M911.87,479.31c10.25-.37,20.56,8.3,20.54,21.1,0,11.95-8.91,21.11-20.53,21.15-11.86,0-20.89-9.21-20.77-21.27C891.22,488.49,900.32,479.29,911.87,479.31ZM901.18,500a51.74,51.74,0,0,0,1.08,5.42,10,10,0,0,0,18.93.35,14.75,14.75,0,0,0-.48-11.84,9.07,9.07,0,0,0-8.54-5.45c-4.14-.11-7.28,1.5-9.06,5.16A38.56,38.56,0,0,0,901.18,500Z"/>
        <path class="cls-1" d="M697.89,403.33c-11.74,0-20.56-9-20.59-21a20.66,20.66,0,1,1,41.3,0C718.48,394.25,709.51,403.36,697.89,403.33Zm10.32-21.67a20.49,20.49,0,0,0-.19-2.57c-.87-5-4.39-8.49-8.9-8.78-5.5-.35-9.25,2.11-10.84,7.22a15.39,15.39,0,0,0,.14,9.81,9.84,9.84,0,0,0,12.88,6.25C705.75,392.08,708.18,388.1,708.21,381.66Z"/>
        <path class="cls-1" d="M841,479.31c11.51.07,20.55,9.49,20.43,21.28s-9.15,21-20.78,21a20.43,20.43,0,0,1-20.58-21.43C820.47,486,831.87,478.75,841,479.31Zm-10.8,20.6a48.62,48.62,0,0,0,.88,5.14c1.38,4.68,4.75,7.22,9.43,7.29a9.5,9.5,0,0,0,9.87-7.21,15,15,0,0,0-.71-11.17,9.11,9.11,0,0,0-8.87-5.48c-4.17,0-7.2,1.75-8.89,5.43A37.27,37.27,0,0,0,830.19,499.91Z"/>
        <path class="cls-1" d="M401.27,361.09c11.62,0,20.49,9.17,20.48,21.13s-8.87,21.1-20.53,21.11c-11.93,0-20.64-9-20.65-21.29C380.56,369.35,391.15,360.61,401.27,361.09Zm10.59,21.15a44.69,44.69,0,0,0-1.79-6.41,8.78,8.78,0,0,0-8.36-5.57c-4.24-.13-7.42,1.48-9.33,5.25a14.63,14.63,0,0,0-.35,12.75c1.65,3.92,4.75,5.78,9,5.85s7.41-1.7,9.12-5.57A45.58,45.58,0,0,0,411.86,382.24Z"/>
        <path class="cls-1" d="M591.18,500.35a20.59,20.59,0,1,1,41.16,0c0,12-8.82,21.16-20.44,21.2C600,521.6,591.16,512.6,591.18,500.35Zm31.28.21a43.53,43.53,0,0,0-1.64-6.22,9,9,0,0,0-8.91-5.86,9.27,9.27,0,0,0-9.12,5.61,14.47,14.47,0,0,0-.15,12.43c1.68,3.9,4.76,5.77,9,5.82s7.41-1.71,9.1-5.6A45.19,45.19,0,0,0,622.46,500.56Z"/>
        <path class="cls-1" d="M270.62,368.16l-6.25,7a16.46,16.46,0,0,0-1.85-2.79,9.43,9.43,0,0,0-14,.55,14.31,14.31,0,0,0-.21,18.11A9.29,9.29,0,0,0,259,394c2.95-1.16,5-3.15,5.06-7h-9v-7h18.66c.06,3.73.73,7.39-.48,11-4.5,13.36-22.65,16.74-32.52,6.08A22.34,22.34,0,0,1,242,365.79C250,358.51,265.05,359.88,270.62,368.16Z"/>
        <path class="cls-1" d="M287.09,388.27v14.09h-9.24V361.94c6,0,11.86-.3,17.65.09a10.78,10.78,0,0,1,9.8,8.59c1.26,5.81-.63,10.95-5.09,13.81-.77.5-1.6.91-2.57,1.47l13.78,16.7c-4.21,0-7.61.12-11-.08-.85,0-1.81-1-2.43-1.77-2.92-3.62-5.72-7.32-8.58-11-.48-.61-1-1.19-1.54-1.78Zm.26-8.83c4.07.49,6.46-.18,7.6-2.06,1-1.7.94-4.68-.33-6.09-2-2.23-4.56-2-7.46-1.54,0,2.69,0,5.18,0,7.67C287.18,378.11,287.29,378.79,287.35,379.44Z"/>
        <path class="cls-1" d="M646.11,420.75c5.83.11,11.43-.56,16.95.72a20.19,20.19,0,0,1,15.32,21c-.88,10.71-8.48,18.46-18.82,19-4.39.22-8.8,0-13.45,0Zm9.6,8.67c-.64,4.85-.45,21,.25,23.52,6,1.23,12-4.25,12.17-11.31C668.29,435.26,663.64,428.78,655.71,429.42Z"/>
        <path class="cls-1" d="M643.18,361.81c6,.26,11.86-.79,17.59.82,9.13,2.55,14.78,10.66,14.45,20.54A19.69,19.69,0,0,1,659.51,402a18.5,18.5,0,0,1-3.51.58c-4.17.07-8.34,0-12.45,0C642.69,400,642.39,368.38,643.18,361.81Zm9.24,32.27c5.06.19,8.78-1.55,11-5.71a12.23,12.23,0,0,0-.49-13.22,9.85,9.85,0,0,0-10.54-4.62Z"/>
        <path class="cls-1" d="M721.18,461.53V420.82c5.89,0,11.6-.67,17.2.76,10,2.55,15.88,11.57,14.85,22.31a19.73,19.73,0,0,1-19,17.61C730,461.69,725.72,461.53,721.18,461.53Zm9.49-32.14c-.65,5.09-.46,21.13.25,23.6,7.31.24,12.24-4.48,12.25-11.75S738.15,429.22,730.67,429.39Z"/>
        <path class="cls-1" d="M439.45,361.81c5.9.26,11.63-.77,17.25.76,9.25,2.5,15.08,10.51,14.86,20.24-.2,9.38-6.5,17.39-15.79,19.06-5.21.94-10.63.71-15.81,1C439,400,438.64,368.39,439.45,361.81Zm9.35,32.06c7.31.59,12.63-4.54,12.52-11.88S456,369.93,448.8,370.56Z"/>
        <path class="cls-1" d="M649.9,521.13V480c5.91.26,11.73-.75,17.45.78a20,20,0,0,1,14.86,19.92c-.19,9.6-6.52,17.72-15.87,19.38C661.14,521,655.73,520.8,649.9,521.13Zm9.55-8.85c4.89.19,8.61-1.5,10.83-5.7a12.37,12.37,0,0,0-.69-13.53,9.79,9.79,0,0,0-10.14-4.34Z"/>
        <path class="cls-1" d="M312.53,362h9.14c.08,1,.23,2,.23,3,0,6.44,0,12.87,0,19.31a24.92,24.92,0,0,0,.54,5.31c.71,3.17,2.86,4.56,6.38,4.4,3.31-.16,5.21-1.65,5.75-4.79a30.64,30.64,0,0,0,.31-5c0-6.2,0-12.4,0-18.6,0-1.16.09-2.33.15-3.68h9.2c.08,1.19.19,2.24.2,3.28q0,10.91,0,21.82a27.18,27.18,0,0,1-.13,2.85c-.81,8.07-4.81,12.39-12.86,13.2a29.2,29.2,0,0,1-9.54-.74c-5.68-1.35-9.22-6-9.37-12.46C312.37,380.77,312.53,371.6,312.53,362Z"/>
        <path class="cls-1" d="M1001,512.89l-3,7.76H987.85c5.51-13.7,10.87-27,16.28-40.45h9l16.32,40.45h-10.14l-3-7.76Zm7.64-20c-1.59,4.22-2.9,7.66-4.28,11.32h8.59Z"/>
        <path class="cls-1" d="M628.21,361.94h9.27c.09,1,.25,2,.25,2.87,0,7.52,0,15,0,22.54-.06,10.77-5.37,16-16.13,16-.72,0-1.43,0-2.15-.05-8.52-.67-13.45-5.45-13.7-14-.26-8.82,0-17.65,0-26.47,0-.21.17-.42.35-.83h8.86c.08,1.16.19,2.2.2,3.23,0,6.32,0,12.64,0,19a29.77,29.77,0,0,0,.36,4.62c.63,3.75,2.64,5.33,6.43,5.22,3.6-.11,5.43-1.7,5.93-5.37a43.62,43.62,0,0,0,.31-5.71C628.23,376.06,628.21,369.16,628.21,361.94Z"/>
        <path class="cls-1" d="M678.08,461.33c5.54-13.7,11-27.13,16.36-40.51h8.72c5.36,13.27,10.79,26.69,16.37,40.49H709.45c-1-2.41-2-5-3.11-7.66H691.22c-.93,2.42-1.91,4.93-3,7.68Zm16.52-16.54h8.5c-1.65-3.5-2.25-7-4.54-10.33C697.14,438.15,695.92,441.34,694.6,444.79Z"/>
        <path class="cls-1" d="M321.22,461.42c5.55-13.75,11-27.17,16.32-40.44,8.54-.8,8.54-.81,11.49,6.48q6.23,15.41,12.43,30.82c.39,1,.69,2,1.1,3.17h-9.89c-1-2.5-2.06-5.11-3.14-7.77H334.39c-1,2.6-2,5.12-3,7.74Zm21.17-26.57-.73-.05A80.54,80.54,0,0,0,337.94,445h8.28Z"/>
        <path class="cls-1" d="M237.13,480.19H260V488c-4.31.74-8.72,0-13.36.52V496h12.82v8.43H246.59v7.94h13.35v8.27H237.45C236.58,518.29,236.27,486.13,237.13,480.19Z"/>
        <path class="cls-1" d="M498.75,362.06v7.7c-4.45.84-9-.09-13.56.61v7.32H498v8.48H485.23v8h13.38v8.25h-22.5c-.88-2.33-1.2-34-.36-40.32Z"/>
        <path class="cls-1" d="M450.06,445.41v8h13.47v7.95h-23V420.89c7.67-.31,15.22-.16,23-.08v8.32H450.08v7.8h12.79v8.48Z"/>
        <path class="cls-1" d="M246.49,429.09v8h12.94v8.41H246.49v7.84h13.45V461c-2.46.7-17.92.9-22.64.28-.73-2.68-.81-36.77,0-40.35h22.62v8.13Z"/>
        <path class="cls-1" d="M498.41,520.59V480.23h23.12v7.9c-4.41.49-8.93-.05-13.56.35v7.43H520.9v8.41H508.08v8h13.47v7.89C519.11,521,505.39,521.24,498.41,520.59Z"/>
        <path class="cls-1" d="M686.21,480.15h23v8.14H695.8V496h12.77v8.41H695.76v8.07H709.3v8.17H686.21Z"/>
        <path class="cls-1" d="M540.22,377.63v8.42h-13v8.06h13.58v8.29H517.68V361.87c7.65-.11,15.3-.14,23.13,0v8.16h-13.7v7.56Z"/>
        <path class="cls-1" d="M437,424.06c-1.31,2.6-2.53,5-3.85,7.62-1-.41-1.89-.73-2.73-1.09a14.53,14.53,0,0,0-10.48-.37,11.52,11.52,0,0,0-8.13,12.08,11.82,11.82,0,0,0,10.49,10.57,15.47,15.47,0,0,0,10.65-2.25l3.91,7.51c-6.18,6.26-20.52,5.41-28.35-1.53a20,20,0,0,1-2.71-27.72A23.32,23.32,0,0,1,437,424.06Z"/>
        <path class="cls-1" d="M335.18,480.29c0,2,0,3.77,0,5.53,0,.69-.15,1.38-.27,2.42h-13.5V496h12.94v8.44h-13v7.82H334.9v8.35h-23v-40.3Z"/>
        <path class="cls-1" d="M818.61,483.15c-1.27,2.57-2.46,5-3.77,7.66-1-.39-1.83-.71-2.66-1.05a14.27,14.27,0,0,0-12.1.22,10.87,10.87,0,0,0-6.66,10.53c.05,4.84,2.51,8.37,6.9,10.4a13.86,13.86,0,0,0,11.11.41c1-.38,2-.85,3.3-1.44l3.9,7.59c-2.81,2.64-6.23,3.24-9.58,3.85a22.94,22.94,0,0,1-24.19-12.74c-3.73-8.2-1.33-17.73,5.77-23.93C798.88,477.44,811.9,478.1,818.61,483.15Z"/>
        <path class="cls-1" d="M736.18,508.39c2.48,1.35,4.32,2.45,6.24,3.38a9.59,9.59,0,0,0,7,.54c2.87-.82,3.62-3.87,1.33-5.81a28.75,28.75,0,0,0-4.59-2.72,54.42,54.42,0,0,1-6.51-3.69,10.91,10.91,0,0,1-.85-16.89,13.47,13.47,0,0,1,9.34-3.9,22.47,22.47,0,0,1,13.13,3.82c-1.22,2.47-2.39,4.86-3.59,7.3a36.45,36.45,0,0,0-5.61-2.09,11.45,11.45,0,0,0-5.24,0c-2.66.77-3.09,3.61-.85,5.21a58.77,58.77,0,0,0,5.65,3,49.2,49.2,0,0,1,7,4.19c7.1,5.69,3.49,16.18-2.58,18.86a22.63,22.63,0,0,1-16,.85,19.24,19.24,0,0,1-8.31-4.52Z"/>
        <path class="cls-1" d="M725.11,390.16c2.37,1.3,4.21,2.39,6.12,3.34a8.71,8.71,0,0,0,6.95.55,5.42,5.42,0,0,0,2.66-2.52c.66-1.31-.12-2.62-1.28-3.4-1.48-1-3.09-1.78-4.65-2.64a50.69,50.69,0,0,1-5.93-3.27c-6.71-5-6.43-14,.46-18.73A15,15,0,0,1,740,361.18a20.2,20.2,0,0,1,10.11,3.8l-3.57,7.27a20.56,20.56,0,0,0-3.35-1.4,36.44,36.44,0,0,0-6.61-1,3.16,3.16,0,0,0-3.09,2.56c-.4,1.53.55,2.56,1.71,3.24,1.74,1,3.61,1.8,5.39,2.75a53.24,53.24,0,0,1,5.92,3.29,10.56,10.56,0,0,1,4.6,11.22,11.39,11.39,0,0,1-7.62,9.13c-7.76,3.08-18.27.33-22.84-4.35Z"/>
        <path class="cls-1" d="M378.24,515.83l4.46-7.53c1.3.8,2.45,1.54,3.63,2.24,2.73,1.62,5.59,2.57,8.85,1.94,1.68-.33,2.92-1.05,3.28-2.8a3.26,3.26,0,0,0-1.72-3.63c-1.83-1.1-3.8-2-5.67-3a36.29,36.29,0,0,1-5.45-3.34c-6.27-5.22-4.27-13.46.33-17.16a13.93,13.93,0,0,1,8.86-3.25,22.38,22.38,0,0,1,12.94,3.86l-3.64,7.28a34.65,34.65,0,0,0-4.33-1.74,21.74,21.74,0,0,0-5.25-.69,3.25,3.25,0,0,0-3.4,2.61c-.41,1.72.64,2.74,1.93,3.45,1.76,1,3.66,1.72,5.43,2.69a48,48,0,0,1,6.41,3.82c7,5.45,4,15.87-2.1,19C395.08,523.47,383.16,521.15,378.24,515.83Z"/>
        <path class="cls-1" d="M467.07,456.84l4.59-7.58c2,1.14,3.72,2.15,5.48,3.13a10.33,10.33,0,0,0,6.58,1.12c1.74-.23,3.24-.94,3.64-2.9a3.42,3.42,0,0,0-1.95-3.85c-1.54-.9-3.17-1.65-4.74-2.51a44.76,44.76,0,0,1-5.56-3.19c-7.1-5.38-4.95-14.46.62-18.3,4.25-2.93,8.88-3.3,13.67-2a76.39,76.39,0,0,1,7.48,2.91l-3.8,7.47c-2.51-.81-4.73-1.58-7-2.21a5.94,5.94,0,0,0-2.45-.11c-1.57.22-3.08.68-3.53,2.51s.72,2.94,2.12,3.72c1.76,1,3.66,1.72,5.43,2.69a43.58,43.58,0,0,1,6.11,3.64c7.23,5.59,4.16,16.33-2.62,19.28-4.69,2-9.53,2-14.38,1A19.12,19.12,0,0,1,467.07,456.84Z"/>
        <path class="cls-1" d="M279.15,480.13c6,0,11.87-.29,17.67.08,6.31.4,10.5,5,10.94,11.17.49,6.81-2.86,12-9,13.66a30.13,30.13,0,0,1-5.63.73c-1.51.12-3,0-4.91,0V520.6h-8.78C278.69,518.22,278.4,487,279.15,480.13ZM288.46,498c3.28.09,6.48.65,8.59-2.4a4.69,4.69,0,0,0,0-5.41c-2.09-3-5.28-2.57-8.59-2.37Z"/>
        <path class="cls-1" d="M349.88,362c6.21,0,12.3-.42,18.3.11,6.23.55,10.07,5.24,10.33,11.31.29,7-3,11.87-9.21,13.47a29.93,29.93,0,0,1-5.28.69c-1.52.11-3,0-5,0v14.76h-9.17Zm9.17,7.73v10c3.54.25,6.69.67,8.79-2.39a5.21,5.21,0,0,0-.27-5.71C365.31,369,362.38,369.25,359.05,369.7Z"/>
        <path class="cls-1" d="M779.86,445.45H767v8H780.5v7.93H758c-.76-2.38-1-35.61-.24-40.39h22.76c.07,1.23.19,2.48.22,3.74s0,2.61,0,4.26H767.11v8h12.75Z"/>
        <path class="cls-1" d="M497.23,429.26v-8.51c9.53,0,18.88,0,28.47,0v8.33h-9.52c-.11,10.84,0,21.41-.08,32.24h-9.31V429.26Z"/>
        <path class="cls-1" d="M591.13,488.32h-9.29v32.3h-9.27c-.08-1.23-.25-2.47-.25-3.72,0-8.12,0-16.24,0-24.36v-4.21h-9.5v-7.76c2.52-.68,22.61-.88,28.32-.26Z"/>
        <path class="cls-1" d="M865.28,520.61V480.25h9.29v32.06h13.82v8C885.91,521,872.18,521.2,865.28,520.61Z"/>
        <path class="cls-1" d="M603.09,420.93H612c.89,3.56.3,7.12.41,10.63s0,7.15,0,10.72v11h13.69v8.12h-23Z"/>
        <path class="cls-1" d="M614.14,241.33c-2.23-3-4.27-5.79-6.56-8.88l23.24-20.18,10.55,13.25Z"/>
        <path class="cls-1" d="M772.16,533.65l-5.29-2.3c8.24-20.78,8.1-31.41-.66-51.59l5.09-2.16C783.14,490.46,785,517.58,772.16,533.65Z"/>
        <path class="cls-1" d="M728.81,531.25l-5.32,2.3c-10.62-11.16-13.53-38.56.33-55.83l5.7,2.24c-5,8-6.82,16.66-6.9,25.65S724.13,523.15,728.81,531.25Z"/>
        <path class="cls-1" d="M986.13,520.74h-8.57c-.81-2.52-1.1-33.73-.37-40.46h8.94Z"/>
        <path class="cls-1" d="M639.88,461.6H631V421h8.91Z"/>
      </g>
    </g>
  </g>
</svg>
